# xmcd CD database file
#
# Track frame offsets:
#	150
#	10714
#	27731
#	43639
#	63495
#	82867
#	95543
#	110142
#	125476
#	135443
#	150000
#	160828
#	177290
#	190140
#	207895
#	220331
#	235861
#	249573
#	260579
#	277308
#
# Disc length: 3855 seconds
#
# Revision: 0
# Processed by: cddbd v1.5.2PL0 Copyright (c) Steve Scherf et al.
# Submitted via: CDex 1.51
#
DISCID=170f0d14
DTITLE=Daniel O'Donnell - Country Boy
DYEAR=1900
DGENRE=Country
TTITLE0=Going To Be A Country Boy Again
TTITLE1=If I Said You Had A Beautiful Body (Would You Hold It Against Me )
TTITLE2=Lucille
TTITLE3=Back Home Again
TTITLE4=Me And Bobby Mc Gee
TTITLE5=King Of The Road
TTITLE6=Little Old Wine Drinker Me
TTITLE7=Release Me
TTITLE8=From Here To There To You
TTITLE9=Detroit City
TTITLE10=I Wanna Be Free ( With Loretta Lynn )
TTITLE11=Mother's Birthday Song
TTITLE12=Chrystal Chandliers (With Charley Pride )
TTITLE13=Seven Spanish Angels
TTITLE14=Ring Of Fire
TTITLE15=He Stopped Loving Her Today
TTITLE16=Okie From Muskogee
TTITLE17=I'm Just Lucky I Guess
TTITLE18=Could I Have This Dance (For The Rest Of My Life )
TTITLE19=Oh Lonesome Me
EXTD=
EXTT0=
EXTT1=
EXTT2=
EXTT3=
EXTT4=
EXTT5=
EXTT6=
EXTT7=
EXTT8=
EXTT9=
EXTT10=
EXTT11=
EXTT12=
EXTT13=
EXTT14=
EXTT15=
EXTT16=
EXTT17=
EXTT18=
EXTT19=
PLAYORDER=
